<svg viewBox="0 0 500 500" xml:space="preserve" xmlns="http://www.w3.org/2000/svg">
    <path d="m214.2 478.2-2.3-.7a14.5 14.5 0 0 1-5.4-4.3 18.8 18.8 0 0 1-3.5-9.9 33 33 0 0 1 1-10.9 72.8 72.8 0 0 1 1.8-4.3 35.2 35.2 0 0 1 5-7.3c2-2.4 4.4-4.6 6.5-7.1a33.1 33.1 0 0 0 8.3-15.5l.2-1 .8 1.1c4 7.7 6.9 15 8.6 22.5 1.4 6.1 1.7 12 .9 17.3-1.3 9.2-6.1 16.4-13 19.3a14.6 14.6 0 0 1-8.9.8M186 411.6V408a72 72 0 0 0-3-18.3 190.6 190.6 0 0 0-20.1-41.9 831 831 0 0 0-27-40.8c-5.8-8.5-11.6-17-17.2-25.6a413.2 413.2 0 0 1-20-33c-5.9-11.3-10-21.6-12.7-31.5a62.7 62.7 0 0 1-1.4-28.6 46.1 46.1 0 0 1 14.6-25.5 70 70 0 0 1 14-10.1c5.2-3 11.1-5.7 18.5-8.4a189.2 189.2 0 0 1 53.4-10.2 116.4 116.4 0 0 1 25.8 2.3 78.2 78.2 0 0 1 30.9 13.9 65 65 0 0 1 20 25.3 77 77 0 0 1 6.3 21.3c1.1 7.2 1.3 15.4.6 24.2a134 134 0 0 1-9.9 39.4c-1.9 4.9-4.4 9.8-8 16.2a239.3 239.3 0 0 1-19.4 27.4 190.3 190.3 0 0 0-16.5 26 94 94 0 0 0-5.3 12.8c-1.3 4-2.5 8.1-3.5 12.2-2.2 8.4-3.9 17-6 25.4l.1-.6c-1.2 4.9-2.6 9.7-4.3 14.5a78.2 78.2 0 0 1-9.5 18.7c-.3-.4-.5-1-.4-1.5" fill="#f14c2b" transform="matrix(1.3333 0 0 -1.3333 0 666.7) translate(12.1 6.5)"/>
    <path d="m186.6 329.6-.1-.2a554.1 554.1 0 0 1-14.3-32.3l-1.7-4-.8-2-.7-1.6a417.5 417.5 0 0 0-5-11.2c-.7-1.3-1.5-2.7-2.4-4-3.7-5.1-8-10.3-13.7-16.2l-3.6-3.6-2-2c-3.4-3.5-6.8-6.9-10-10.4a126 126 0 0 1-12.7-16.6 71.5 71.5 0 0 1-7.9-18 73.6 73.6 0 0 1-2.6-15.9 56.3 56.3 0 0 1 1.4-13.3 57.4 57.4 0 0 1 14.6-25c4.5-4.4 9.4-8.3 15-12 5.5-1.6 11-3 16.5-4 10.3-2.2 19.7-3.4 28.6-3.6A122.3 122.3 0 0 1 211 136a92 92 0 0 1 10 2.8 117.7 117.7 0 0 1 13.9 18 96.6 96.6 0 0 1 9 20.9 71.7 71.7 0 0 1 3 19.2 90.7 90.7 0 0 1-2.3 20.7 89.8 89.8 0 0 1-9.7 23.8c-4.3 7.6-9.7 15.2-17.5 24.6l-4.1 4.9c-4.3 5.2-8.5 10-12 15.1a76.2 76.2 0 0 0-14 34.4c-.3 3-.4 6-.5 9l-.2.2M131.2 447c-.8-.1-1.7-.6-2.2-1.2-2.8-3.8-5.1-8-7-12.9-1.4-4-2.6-8.8-3.6-14.6-.7-4.2-1.2-8.4-1.7-12.6l-.4-3.5c-.6-5.5-1.3-10.2-2.2-14.6 1.5.2 2.9.7 4.4 1.5a22 22 0 0 1 5.6 4.2 35 35 0 0 1 6.5 8.2 73.3 73.3 0 0 1 7 16.7l.3 1.6a55 55 0 0 1 .9 14 52.2 52.2 0 0 1-1.8 6.1 32.2 32.2 0 0 1-3.3 6.3 3 3 0 0 1-1.6.7h-.8" fill="#f3672c" transform="matrix(1.3333 0 0 -1.3333 0 666.7) translate(12.1 6.5)"/>
    <path d="M86.7 358.7c-1-.2-1.8-.8-2.2-1.7a31.2 31.2 0 0 1-2.8-9.7 24.8 24.8 0 0 1 3.4-14.3c.9-1.8 2-3.5 3.2-5 2.5-3.3 5.3-6.2 8.3-9.2.3.7.3 1.2.4 1.7v1.8l.2 2 .4 9a60.8 60.8 0 0 1-1.4 13.3l-.6 1.9-1.5 2.9-.5.8a39.1 39.1 0 0 1-5.5 6.2c-.4.2-1 .3-1.4.3M146.7 154l.2-.2-.2.3m74.1 26.9v-.4.4m-52.3 69.7a73.7 73.7 0 0 1-21.5-97l-.1.1a69.8 69.8 0 0 1 8.3-13.2l3.6-4a130.2 130.2 0 0 1 39-2.7 101.5 101.5 0 0 1 14.4 20c1.8 3.4 3.3 6.7 4.6 10.2a64.5 64.5 0 0 1 4 17v-.1a61.3 61.3 0 0 1-.4 12.6v-.6a42.7 42.7 0 0 1-3.5 12v.2a41.5 41.5 0 0 1-5.9 9.2 43.4 43.4 0 0 1-9.8 9c-3.3 2.4-6.8 4.4-10.2 6.5-3 1.8-6 3.8-8.6 6.3a31.6 31.6 0 0 0-9.3 16.6l-.6 3.1-4-5.2M155 140.8v.1M155.2 140.6l-.1.2.1-.2M155.3 140.5v.1-.1" fill="#f68c2f" transform="matrix(1.3333 0 0 -1.3333 0 666.7) translate(12.1 6.5)"/>
    <path d="M183 178.2a29.9 29.9 0 0 1-17.8-12.4l.3.4c-1.1-1.6-2-3.4-2.7-5.3-.3-1-.7-2.2-.9-3.4l-.2-2.4a37 37 0 0 1 .5-6.4 38.4 38.4 0 0 1 2.4-6.5c1-2 2.3-3.7 3.7-5.4l-.3.5c.9-1 1.8-2 2.8-2.7v-.1c4-.5 8-.9 11.8-1 2.8 3.9 5.7 7.7 8.4 11.8a57.2 57.2 0 0 1 6.1 12 32.6 32.6 0 0 1 1.6 8c0 1.8 0 3.5-.3 5.3v-.1c-.2 1-.6 2.1-1.1 3.1l-1.5 2c-.4.5-1 1-1.5 1.3a13.7 13.7 0 0 1-2.4 1.2 16.2 16.2 0 0 1-8.9.1M198.4 170.6v.4-.4M190.7 144.8l.2.2-.2-.2" fill="#f8a04d" transform="matrix(1.3333 0 0 -1.3333 0 666.7) translate(12.1 6.5)"/>
</svg>
